<svg width="216" height="120" viewBox="0 0 242 146" fill="none" xmlns="http://www.w3.org/2000/svg">
<!-- <path d="M130.588 9.17646L231.059 65.8823C235.059 68.1176 236.471 73.1765 234.235 77.1765C233.529 78.4706 232.353 79.6471 231.059 80.3529L130.471 137.059C123.412 141.059 114.824 140.941 107.765 136.941L9.64709 80.2353C5.64709 77.8823 4.35297 72.8235 6.58826 68.8235C7.29414 67.5294 8.35297 66.4706 9.64709 65.7647L107.882 9.29411C114.824 5.17646 123.529 5.17646 130.588 9.17646Z" fill="#56F000" fill-opacity="0.6" class="status-indicator" /> -->
<path d="M81.5294 77.2941L135.765 107.647C142.706 109.882 148.824 109.059 154.471 105.176C160.118 101.294 163.765 96.9412 165.882 92.2353C169.059 85.647 170.588 79.8823 170.471 75.0588C170.353 67.8823 170 65.647 167.765 62.3529C165.529 59.0588 164.353 58.4706 161.529 56.8235C159.647 55.647 104.706 25.0588 102 24.5882C90.8235 22.4706 77.6471 32.7059 72.4706 47.4118C67.6471 61.4118 71.8824 74.4706 82 77.4118C81.8824 77.4118 81.7647 77.4118 81.5294 77.2941Z" fill="url(#paint0_linear_2_236)"/>
<path d="M128.941 78.7059C123.882 93.4117 128.824 107.059 140 109.176C151.176 111.294 164.353 101.059 169.529 86.3529C174.588 71.647 169.647 58 158.471 55.8823C147.176 53.7647 134 64 128.941 78.7059Z" fill="url(#paint1_radial_2_236)"/>
<path d="M129.177 78.8235C134.235 64.2353 147.294 54.1176 158.235 56.2353C169.177 58.2353 174.118 71.647 169.059 86.2353C164 100.824 150.941 110.941 140 108.824C129.059 106.706 124.235 93.2941 129.177 78.8235Z" stroke="#528BA0" stroke-width="0.662353"/>
<path d="M136.235 80.1176C139.529 70.4706 148.118 63.8823 155.294 65.1765C162.353 66.4706 165.529 75.1765 162.353 84.8235C159.059 94.4706 150.471 101.059 143.294 99.7647C136.118 98.3529 132.941 89.6471 136.235 80.1176Z" stroke="#3A3939" stroke-width="1.17647"/>
<defs>
<linearGradient id="paint0_linear_2_236" x1="133.027" y1="35.7427" x2="102.702" y2="87.579" gradientUnits="userSpaceOnUse">
<stop stop-color="#0F2E41"/>
<stop offset="0.1242" stop-color="#194D63"/>
<stop offset="0.2568" stop-color="#9ADAEE"/>
<stop offset="0.5722" stop-color="#4999D2"/>
<stop offset="1" stop-color="#082537"/>
</linearGradient>
<radialGradient id="paint1_radial_2_236" cx="0" cy="0" r="1" gradientUnits="userSpaceOnUse" gradientTransform="translate(149.805 80.0733) rotate(127.366) scale(84.2559 64.3779)">
<stop/>
<stop offset="1" stop-color="#414A4D"/>
</radialGradient>
</defs>
</svg>