<svg width="101" height="71" viewBox="0 0 101 71" fill="none" xmlns="http://www.w3.org/2000/svg">
<path d="M0.40675 29.8419V39.9082C0.40675 41.0268 1.12101 42.1454 2.54952 43.2637C3.97802 44.3823 5.76383 45.128 7.54963 46.2466L45.0498 68.9894C46.8353 70.1081 48.6211 70.8537 50.4069 70.8537C52.1924 70.8537 53.9782 70.1081 55.764 68.9894L92.9069 46.2466C95.407 44.755 97.1928 43.6367 98.264 42.8911C99.3355 42.1454 100.05 41.3994 100.407 40.2812V30.5875C100.407 31.3331 99.6925 31.7058 98.264 32.4514C97.1928 33.1971 82.5497 41.7724 55.0497 58.5502C51.8354 60.4141 48.2638 60.4141 45.0498 58.5502C17.5495 41.7724 2.90681 32.8244 1.8356 32.0788C0.764047 32.0788 0.40675 31.3331 0.40675 29.8419Z" fill="url(#paint0_linear_6_6)"/>
<path d="M54.6932 2.2519L98.2644 27.9776C100.05 29.0959 100.764 31.3332 99.6929 33.1974C99.336 33.9431 98.9787 34.3157 98.2644 34.6887L54.6932 60.4141C51.4789 62.2784 47.9073 62.2784 44.693 60.4141L2.19299 34.6887C0.40718 33.5701 0.0498825 31.3332 0.764137 29.4689C1.12143 28.7233 1.47873 28.3503 2.19299 27.9776L44.693 2.2519C47.9073 0.387631 51.8359 0.387631 54.6932 2.2519Z" fill="url(#paint1_linear_6_6)"/>
<defs>
<linearGradient id="paint0_linear_6_6" x1="3.77152" y1="50.1641" x2="97.3314" y2="50.1641" gradientUnits="userSpaceOnUse">
<stop stop-color="#4C9ED9"/>
<stop offset="0.4988" stop-color="#3F8ABE"/>
<stop offset="0.5652" stop-color="#266288"/>
<stop offset="1" stop-color="#215B7F"/>
</linearGradient>
<linearGradient id="paint1_linear_6_6" x1="50.4488" y1="31.0151" x2="50.4488" y2="61.4451" gradientUnits="userSpaceOnUse">
<stop stop-color="#00395F"/>
<stop offset="1" stop-color="#005377"/>
</linearGradient>
</defs>
</svg>
