<svg width="190" height="113" viewBox="0 0 194 117" fill="none" xmlns="http://www.w3.org/2000/svg">
<!-- <path d="M105.129 6.74118L185.6 52.1059C188.8 53.8941 189.929 57.9412 188.141 61.1412C187.577 62.1765 186.635 63.1176 185.6 63.6824L105.129 109.047C99.4824 112.247 92.6118 112.153 86.9647 108.953L8.4706 63.6824C5.2706 61.8 4.23533 57.7529 6.02357 54.5529C6.58827 53.5176 7.43531 52.6706 8.4706 52.1059L86.9647 6.74118C92.5177 3.6353 99.4824 3.54118 105.129 6.74118Z" fill="#56F000" fill-opacity="0.6" class="status-indicator" /> -->
<path d="M36.8 49.8471V61.4235C36.8942 62.9294 37.8354 64.153 39.5295 65.2824C41.3177 66.4118 43.2001 67.5412 45.3648 68.6706L89.9765 94.5529C92.2353 95.9647 94.4001 96.7177 96.4707 96.7177C98.6354 96.7177 100.706 96.0588 102.871 94.5529L147.388 68.6706C150.306 66.8824 152.377 65.6588 153.694 65C155.012 64.3412 155.859 63.4 156.235 62.1765V51.1647C156.047 51.8235 155.294 52.5765 153.882 53.4235C152.471 54.1765 135.153 64.2471 101.835 83.5412C98.353 85.5177 94.1177 85.5177 90.7295 83.5412C57.4119 64.0588 40.0942 53.9882 38.7766 53.2353C37.4589 52.3882 36.8 51.2588 36.8 49.8471Z" fill="url(#paint0_linear_2_245)"/>
<path d="M101.177 18.3176C97.8824 16.4353 93.9295 16.5294 90.7295 18.4118L38.9648 48.3412C38.4001 48.6235 38.0236 49.0941 37.6471 49.6588C36.7059 51.3529 37.2707 53.5176 38.9648 54.4588L90.7295 84.3882C93.9295 86.2706 97.9765 86.2706 101.177 84.4824L154.259 54.4588C154.824 54.1765 155.294 53.7059 155.577 53.1412C156.518 51.4471 155.953 49.2824 154.259 48.3412L101.177 18.3176Z" fill="url(#paint1_linear_2_245)" stroke="#9DCCE0" stroke-width="0.941176"/>
<path d="M71.2377 44.3242C71.3318 44.4184 71.4259 44.4184 71.5201 44.5125L73.873 46.1125C74.1553 46.3007 74.2495 46.4889 74.2495 46.7713V49.6889C74.2495 49.9713 74.0613 50.1595 73.7789 50.4419L67.7553 54.1125L67.3789 56.8419C69.4495 57.2184 70.9554 58.3478 70.9554 59.6654C70.9554 61.2654 68.6024 62.6772 65.6847 62.6772C62.7671 62.6772 60.4142 61.3595 60.4142 59.6654C60.4142 58.4419 61.7318 57.3125 63.7083 56.936L64.0848 53.6419C64.0848 53.3595 64.273 53.1713 64.5554 52.9831L70.5789 49.4066V47.2419L68.6024 45.9242C68.5083 45.9242 68.5083 45.8301 68.4142 45.8301C67.8495 45.9242 67.1907 46.0184 66.4377 46.0184C63.5201 46.0184 61.1671 44.7007 61.1671 43.0066C61.1671 41.3125 63.5201 39.9948 66.4377 39.9948C69.3554 39.9948 71.7083 41.3125 71.7083 43.0066C71.8965 43.3831 71.6142 43.8537 71.2377 44.3242ZM66.5318 44.2301C67.8495 44.2301 68.8848 43.6654 68.8848 42.9125C68.8848 42.1595 67.8495 41.5948 66.5318 41.5948C65.2142 41.5948 64.1789 42.1595 64.1789 42.9125C64.1789 43.6654 65.3083 44.2301 66.5318 44.2301ZM65.7789 60.8889C67.0965 60.8889 68.1318 60.3242 68.1318 59.5713C68.1318 58.8184 67.0965 58.2537 65.7789 58.2537C64.4613 58.2537 63.426 58.8184 63.426 59.5713C63.426 60.2301 64.4613 60.8889 65.7789 60.8889Z" fill="black"/>
<path d="M116.979 44.3242C116.885 44.4184 116.791 44.4184 116.697 44.5125L114.344 46.1125C114.061 46.3007 113.967 46.4889 113.967 46.7713V49.6889C113.967 49.9713 114.155 50.1595 114.438 50.4419L120.461 54.1125L120.838 56.8419C118.767 57.2184 117.261 58.3478 117.261 59.6654C117.261 61.2654 119.614 62.6772 122.532 62.6772C125.449 62.6772 127.802 61.3595 127.802 59.6654C127.802 58.4419 126.485 57.3125 124.508 56.936L124.132 53.6419C124.132 53.3595 123.944 53.1713 123.661 52.9831L117.638 49.4066V47.2419L119.614 45.9242C119.708 45.9242 119.708 45.8301 119.802 45.8301C120.367 45.9242 121.026 46.0184 121.779 46.0184C124.697 46.0184 127.049 44.7007 127.049 43.0066C127.049 41.3125 124.697 39.9948 121.779 39.9948C118.861 39.9948 116.508 41.3125 116.508 43.0066C116.32 43.3831 116.602 43.8537 116.979 44.3242ZM121.591 44.2301C120.273 44.2301 119.238 43.6654 119.238 42.9125C119.238 42.1595 120.273 41.5948 121.591 41.5948C122.908 41.5948 123.944 42.1595 123.944 42.9125C123.944 43.6654 122.908 44.2301 121.591 44.2301ZM122.438 60.8889C121.12 60.8889 120.085 60.3242 120.085 59.5713C120.085 58.8184 121.12 58.2537 122.438 58.2537C123.755 58.2537 124.791 58.8184 124.791 59.5713C124.791 60.2301 123.755 60.8889 122.438 60.8889Z" fill="black"/>
<path d="M85.2613 37.0772V54.5831C85.2613 54.7713 85.0731 54.9595 84.7907 55.1478L80.273 57.5948V62.2066C82.626 62.5831 84.226 63.7125 84.226 65.0301C84.226 66.6301 81.779 67.9478 78.6731 67.9478C75.5672 67.9478 73.1201 66.6301 73.1201 65.0301C73.1201 63.7125 74.8142 62.5831 77.0731 62.2066V57.3125C77.0731 57.1242 77.2613 56.936 77.5437 56.7478L82.2495 54.3007L82.1554 37.1713C79.8024 36.7948 78.1083 35.6654 78.1083 34.3478C78.1083 32.7478 80.5554 31.4301 83.6613 31.4301C86.7672 31.4301 89.2142 32.7478 89.2142 34.3478C89.3083 35.5713 87.6143 36.7007 85.2613 37.0772ZM82.7201 54.0184L82.2495 54.5831V54.3007L82.7201 54.0184ZM78.8613 66.2537C80.273 66.2537 81.3084 65.6889 81.3084 64.936C81.3084 64.1831 80.1789 63.6184 78.8613 63.6184C77.5436 63.6184 76.4142 64.1831 76.4142 64.936C76.3201 65.6889 77.4495 66.2537 78.8613 66.2537ZM83.7554 35.5713C85.1672 35.5713 86.2025 35.0066 86.2025 34.2537C86.2025 33.5007 85.073 32.936 83.7554 32.936C82.3436 32.936 81.3084 33.5007 81.3084 34.2537C81.3084 35.0066 82.4378 35.5713 83.7554 35.5713Z" fill="black"/>
<path d="M103.991 37.0772V54.5831C103.991 54.7713 104.179 54.9595 104.461 55.1478L108.979 57.5948V62.2066C106.626 62.5831 105.026 63.7125 105.026 65.0301C105.026 66.6301 107.473 67.9478 110.579 67.9478C113.685 67.9478 116.132 66.6301 116.132 65.0301C116.132 63.7125 114.438 62.5831 112.179 62.2066V57.3125C112.179 57.1242 111.991 56.936 111.708 56.7478L107.002 54.3007L107.096 37.1713C109.449 36.7948 111.144 35.6654 111.144 34.3478C111.144 32.7478 108.697 31.4301 105.591 31.4301C102.485 31.4301 100.038 32.7478 100.038 34.3478C99.9436 35.5713 101.638 36.7007 103.991 37.0772ZM106.532 54.0184L107.002 54.5831V54.3007L106.532 54.0184ZM110.485 66.2537C109.073 66.2537 108.038 65.6889 108.038 64.936C108.038 64.1831 109.167 63.6184 110.485 63.6184C111.802 63.6184 112.932 64.1831 112.932 64.936C112.932 65.6889 111.802 66.2537 110.485 66.2537ZM105.497 35.5713C104.085 35.5713 103.049 35.0066 103.049 34.2537C103.049 33.5007 104.179 32.936 105.497 32.936C106.814 32.936 107.944 33.5007 107.944 34.2537C107.944 35.0066 106.814 35.5713 105.497 35.5713Z" fill="black"/>
<path d="M91.9437 50.9125C89.779 50.536 88.179 49.4066 88.179 48.183C88.179 46.583 90.5319 45.2654 93.5437 45.2654C96.5554 45.2654 98.9084 46.583 98.9084 48.183C98.9084 49.5007 97.2142 50.6301 94.8613 51.0066V62.2066C97.2142 62.4889 98.9084 63.6184 98.9084 65.0301C98.9084 66.6301 96.5554 67.9478 93.5437 67.9478C90.5319 67.9478 88.179 66.6301 88.179 65.0301C88.179 63.7125 89.779 62.6772 91.9437 62.3007V50.9125ZM93.5437 49.5007C94.8613 49.5007 95.8966 48.936 95.8966 48.183C95.8966 47.4301 94.8613 46.8654 93.5437 46.8654C92.226 46.8654 91.1907 47.4301 91.1907 48.183C91.1907 48.936 92.226 49.5007 93.5437 49.5007ZM93.5437 66.2536C94.8613 66.2536 95.8966 65.6889 95.8966 64.936C95.8966 64.1831 94.8613 63.6184 93.5437 63.6184C92.226 63.6184 91.1907 64.1831 91.1907 64.936C91.1907 65.6889 92.226 66.2536 93.5437 66.2536Z" fill="black"/>
<defs>
<linearGradient id="paint0_linear_2_245" x1="40.6832" y1="73.2382" x2="152.515" y2="73.2382" gradientUnits="userSpaceOnUse">
<stop stop-color="#4C9ED9"/>
<stop offset="0.4988" stop-color="#3F8ABE"/>
<stop offset="0.5217" stop-color="#266288"/>
<stop offset="1" stop-color="#215B7F"/>
</linearGradient>
<linearGradient id="paint1_linear_2_245" x1="96.6533" y1="29.4109" x2="96.6533" y2="114.379" gradientUnits="userSpaceOnUse">
<stop stop-color="#9ADAEE"/>
<stop offset="1" stop-color="#246085"/>
</linearGradient>
</defs>
</svg>