<svg width="184" height="131" viewBox="0 0 194 141" fill="none" xmlns="http://www.w3.org/2000/svg">
<!-- <path d="M105.365 31.1882L185.741 76.5529C188.941 78.3412 190.071 82.3882 188.282 85.5882C187.718 86.6235 186.777 87.5647 185.741 88.1294L105.271 133.494C99.6236 136.694 92.753 136.6 87.106 133.4L8.61188 88.0353C5.41188 86.1529 4.37655 82.1059 6.16479 78.9059C6.7295 77.8706 7.57659 77.0235 8.61188 76.4588L87.106 31.0941C92.753 28.0823 99.7178 27.9882 105.365 31.1882Z" fill="#56F000" fill-opacity="0.6" class="status-indicator"/> -->
<path d="M37.0354 70.5294V82.1059C37.1295 83.6118 38.0707 84.8353 39.7648 85.9647C41.5531 87.0941 43.4354 88.2235 45.6001 89.3529L90.2119 115.235C92.4707 116.647 94.6354 117.4 96.706 117.4C98.8707 117.4 100.941 116.741 103.106 115.235L147.624 89.3529C150.541 87.5647 152.612 86.3412 153.93 85.6824C155.247 85.0235 156.094 84.0824 156.471 82.8588V71.8471C156.282 72.5059 155.53 73.2588 154.118 74.1059C152.706 74.8588 135.388 84.9294 102.071 104.224C98.5884 106.2 94.3531 106.2 90.9649 104.224C57.6472 84.7412 40.3296 74.6706 39.0119 73.9176C37.6943 73.0706 37.0354 71.9412 37.0354 70.5294Z" fill="url(#paint0_linear_2_258)"/>
<path d="M101.412 39C98.1178 37.1176 94.1648 37.2118 90.9648 39.0941L39.2001 69.0235C38.6354 69.3059 38.2589 69.7765 37.8825 70.3412C36.9413 72.0353 37.506 74.2 39.2001 75.1412L90.9648 105.071C94.1648 106.953 98.2119 106.953 101.412 105.165L154.494 75.1412C155.059 74.8588 155.53 74.3882 155.812 73.8235C156.753 72.1294 156.188 69.9647 154.494 69.0235L101.412 39Z" fill="url(#paint1_linear_2_258)" stroke="#9DCCE0" stroke-width="0.941176"/>
<path d="M37.0354 58.2941V69.8706C37.1295 71.3765 38.0707 72.6 39.7648 73.7294C41.5531 74.8588 43.4354 75.9882 45.6001 77.1176L90.2119 103C92.4707 104.412 94.6354 105.165 96.706 105.165C98.8707 105.165 100.941 104.506 103.106 103L147.624 77.1176C150.541 75.3294 152.612 74.1059 153.93 73.4471C155.247 72.7882 156.094 71.8471 156.471 70.6235V59.6118C156.282 60.2706 155.53 61.0235 154.118 61.8706C152.706 62.6235 135.388 72.6941 102.071 91.9882C98.5884 93.9647 94.3531 93.9647 90.9649 91.9882C57.6472 72.5059 40.3296 62.4353 39.0119 61.6824C37.6943 60.8353 37.0354 59.7059 37.0354 58.2941Z" fill="url(#paint2_linear_2_258)"/>
<path d="M101.412 26.7647C98.1178 24.8824 94.1648 24.9765 90.9648 26.8588L39.2001 56.7882C38.6354 57.0706 38.2589 57.5412 37.8825 58.1059C36.9413 59.8 37.506 61.9647 39.2001 62.9059L90.9648 92.8353C94.1648 94.7176 98.2119 94.7176 101.412 92.9294L154.494 62.9059C155.059 62.6235 155.53 62.1529 155.812 61.5882C156.753 59.8941 156.188 57.7294 154.494 56.7882L101.412 26.7647Z" fill="url(#paint3_linear_2_258)" stroke="#9DCCE0" stroke-width="0.941176"/>
<path d="M37.0354 46.0588V57.6353C37.1295 59.1412 38.0707 60.3647 39.7648 61.4941C41.5531 62.6235 43.4354 63.7529 45.6001 64.8824L90.2119 90.7647C92.4707 92.1765 94.6354 92.9294 96.706 92.9294C98.8707 92.9294 100.941 92.2706 103.106 90.7647L147.624 64.8824C150.541 63.0941 152.612 61.8706 153.93 61.2118C155.247 60.5529 156.094 59.6118 156.471 58.3882V47.3765C156.282 48.0353 155.53 48.7882 154.118 49.6353C152.706 50.3882 135.388 60.4588 102.071 79.7529C98.5884 81.7294 94.3531 81.7294 90.9649 79.7529C57.6472 60.2706 40.3296 50.2 39.0119 49.4471C37.6943 48.6 37.0354 47.4706 37.0354 46.0588Z" fill="url(#paint4_linear_2_258)"/>
<path d="M101.412 14.5294C98.1178 12.6471 94.1648 12.7412 90.9648 14.6235L39.2001 44.5529C38.6354 44.8353 38.2589 45.3059 37.8825 45.8706C36.9413 47.5647 37.506 49.7294 39.2001 50.6706L90.9648 80.6C94.1648 82.4823 98.2119 82.4823 101.412 80.6941L154.494 50.6706C155.059 50.3882 155.53 49.9176 155.812 49.3529C156.753 47.6588 156.188 45.4941 154.494 44.5529L101.412 14.5294Z" fill="url(#paint5_linear_2_258)" stroke="#9DCCE0" stroke-width="0.941176"/>
<path d="M37.0354 33.8235V45.4C37.1295 46.9059 38.0707 48.1294 39.7648 49.2588C41.5531 50.3882 43.4354 51.5176 45.6001 52.6471L90.2119 78.5294C92.4707 79.9412 94.6354 80.6941 96.706 80.6941C98.8707 80.6941 100.941 80.0353 103.106 78.5294L147.624 52.6471C150.541 50.8588 152.612 49.6353 153.93 48.9765C155.247 48.3176 156.094 47.3765 156.471 46.1529V35.1412C156.282 35.8 155.53 36.5529 154.118 37.4C152.706 38.1529 135.388 48.2235 102.071 67.5176C98.5884 69.4941 94.3531 69.4941 90.9649 67.5176C57.6472 48.0353 40.3296 37.9647 39.0119 37.2118C37.6943 36.3647 37.0354 35.2353 37.0354 33.8235Z" fill="url(#paint6_linear_2_258)"/>
<path d="M101.412 2.29412C98.1178 0.411763 94.1648 0.50588 90.9648 2.38823L39.2001 32.3176C38.6354 32.6 38.2589 33.0706 37.8825 33.6353C36.9413 35.3294 37.506 37.4941 39.2001 38.4353L90.9648 68.3647C94.1648 70.247 98.2119 70.2471 101.412 68.4588L154.494 38.4353C155.059 38.1529 155.53 37.6823 155.812 37.1176C156.753 35.4235 156.188 33.2588 154.494 32.3176L101.412 2.29412Z" fill="url(#paint7_linear_2_258)" stroke="#9DCCE0" stroke-width="0.941176"/>
<path d="M71.4731 28.3007C71.5672 28.3948 71.6613 28.3948 71.7554 28.4889L74.1083 30.0889C74.3907 30.2772 74.4848 30.4654 74.4848 30.7478V33.6654C74.4848 33.9478 74.2966 34.136 74.0143 34.4183L67.9907 38.0889L67.6143 40.8184C69.6849 41.1948 71.1907 42.3242 71.1907 43.6419C71.1907 45.2419 68.8377 46.6536 65.9201 46.6536C63.0025 46.6536 60.6495 45.336 60.6495 43.6419C60.6495 42.4184 61.9672 41.2889 63.9437 40.9125L64.3201 37.6183C64.3201 37.336 64.5084 37.1478 64.7907 36.9595L70.8142 33.3831V31.2183L68.8378 29.9007C68.7437 29.9007 68.7437 29.8066 68.6495 29.8066C68.0848 29.9007 67.426 29.9948 66.6731 29.9948C63.7554 29.9948 61.4025 28.6772 61.4025 26.9831C61.4025 25.3831 63.7554 23.9713 66.6731 23.9713C69.5907 23.9713 71.9437 25.2889 71.9437 26.9831C72.1319 27.3595 71.8495 27.8301 71.4731 28.3007ZM66.7672 28.2066C68.0848 28.2066 69.1201 27.6419 69.1201 26.8889C69.1201 26.136 68.0848 25.5713 66.7672 25.5713C65.4495 25.5713 64.4142 26.136 64.4142 26.8889C64.4142 27.6419 65.5437 28.2066 66.7672 28.2066ZM66.0143 44.8654C67.3319 44.8654 68.3672 44.3007 68.3672 43.5478C68.3672 42.7948 67.3319 42.2301 66.0143 42.2301C64.6966 42.2301 63.6613 42.7948 63.6613 43.5478C63.6613 44.2066 64.6966 44.8654 66.0143 44.8654Z" fill="black"/>
<path d="M117.214 28.3007C117.12 28.3948 117.026 28.3948 116.932 28.4889L114.579 30.0889C114.297 30.2772 114.203 30.4654 114.203 30.7478V33.6654C114.203 33.9478 114.391 34.136 114.673 34.4183L120.697 38.0889L121.073 40.8184C119.003 41.1948 117.497 42.3242 117.497 43.6419C117.497 45.2419 119.85 46.6536 122.767 46.6536C125.685 46.6536 128.038 45.336 128.038 43.6419C128.038 42.4184 126.72 41.2889 124.744 40.9125L124.367 37.6183C124.367 37.336 124.179 37.1478 123.897 36.9595L117.873 33.3831V31.2183L119.85 29.9007C119.944 29.9007 119.944 29.8066 120.038 29.8066C120.602 29.9007 121.261 29.9948 122.014 29.9948C124.932 29.9948 127.285 28.6772 127.285 26.9831C127.285 25.3831 124.932 23.9713 122.014 23.9713C119.097 23.9713 116.744 25.2889 116.744 26.9831C116.555 27.3595 116.838 27.8301 117.214 28.3007ZM121.826 28.2066C120.508 28.2066 119.473 27.6419 119.473 26.8889C119.473 26.136 120.508 25.5713 121.826 25.5713C123.144 25.5713 124.179 26.136 124.179 26.8889C124.179 27.6419 123.144 28.2066 121.826 28.2066ZM122.673 44.8654C121.355 44.8654 120.32 44.3007 120.32 43.5478C120.32 42.7948 121.355 42.2301 122.673 42.2301C123.991 42.2301 125.026 42.7948 125.026 43.5478C125.026 44.2066 123.991 44.8654 122.673 44.8654Z" fill="black"/>
<path d="M85.4967 21.0536V38.5595C85.4967 38.7478 85.3084 38.936 85.0261 39.1242L80.5084 41.5713V46.1831C82.8613 46.5595 84.4613 47.6889 84.4613 49.0066C84.4613 50.6066 82.0143 51.9242 78.9084 51.9242C75.8026 51.9242 73.3555 50.6066 73.3555 49.0066C73.3555 47.6889 75.0496 46.5595 77.3084 46.1831V41.2889C77.3084 41.1007 77.4967 40.9125 77.779 40.7242L82.4849 38.2772L82.3907 21.1478C80.0378 20.7713 78.3437 19.6419 78.3437 18.3242C78.3437 16.7242 80.7908 15.4066 83.8967 15.4066C87.0025 15.4066 89.4496 16.7242 89.4496 18.3242C89.5437 19.5478 87.8496 20.6772 85.4967 21.0536ZM82.9555 37.9948L82.4849 38.5595V38.2772L82.9555 37.9948ZM79.0966 50.2301C80.5084 50.2301 81.5437 49.6654 81.5437 48.9125C81.5437 48.1595 80.4143 47.5948 79.0966 47.5948C77.779 47.5948 76.6496 48.1595 76.6496 48.9125C76.6496 49.6654 77.6849 50.2301 79.0966 50.2301ZM83.9908 19.5478C85.4025 19.5478 86.4378 18.9831 86.4378 18.2301C86.4378 17.4772 85.3084 16.9125 83.9908 16.9125C82.579 16.9125 81.5437 17.4772 81.5437 18.2301C81.5437 18.9831 82.6731 19.5478 83.9908 19.5478Z" fill="black"/>
<path d="M104.226 21.0536V38.5595C104.226 38.7478 104.414 38.936 104.697 39.1242L109.214 41.5713V46.1831C106.861 46.5595 105.261 47.6889 105.261 49.0066C105.261 50.6066 107.708 51.9242 110.814 51.9242C113.92 51.9242 116.367 50.6066 116.367 49.0066C116.367 47.6889 114.673 46.5595 112.414 46.1831V41.2889C112.414 41.1007 112.226 40.9125 111.944 40.7242L107.238 38.2772L107.332 21.1478C109.685 20.7713 111.379 19.6419 111.379 18.3242C111.379 16.7242 108.932 15.4066 105.826 15.4066C102.72 15.4066 100.273 16.7242 100.273 18.3242C100.179 19.5478 101.873 20.6772 104.226 21.0536ZM106.767 37.9948L107.238 38.5595V38.2772L106.767 37.9948ZM110.72 50.2301C109.308 50.2301 108.273 49.6654 108.273 48.9125C108.273 48.1595 109.402 47.5948 110.72 47.5948C112.038 47.5948 113.167 48.1595 113.167 48.9125C113.167 49.6654 112.038 50.2301 110.72 50.2301ZM105.732 19.5478C104.32 19.5478 103.285 18.9831 103.285 18.2301C103.285 17.4772 104.414 16.9125 105.732 16.9125C107.05 16.9125 108.179 17.4772 108.179 18.2301C108.179 18.9831 107.05 19.5478 105.732 19.5478Z" fill="black"/>
<path d="M92.179 34.8889C90.0143 34.5125 88.4143 33.3831 88.4143 32.1595C88.4143 30.5595 90.7673 29.2419 93.779 29.2419C96.7908 29.2419 99.1437 30.5595 99.1437 32.1595C99.1437 33.4772 97.4496 34.6066 95.0966 34.9831V46.1831C97.4496 46.4654 99.1437 47.5948 99.1437 49.0066C99.1437 50.6066 96.7908 51.9242 93.779 51.9242C90.7673 51.9242 88.4143 50.6066 88.4143 49.0066C88.4143 47.6889 90.0143 46.6536 92.179 46.2772V34.8889ZM93.779 33.4772C95.0967 33.4772 96.132 32.9125 96.132 32.1595C96.132 31.4066 95.0967 30.8419 93.779 30.8419C92.4614 30.8419 91.4261 31.4066 91.4261 32.1595C91.4261 32.9125 92.4614 33.4772 93.779 33.4772ZM93.779 50.2301C95.0967 50.2301 96.132 49.6654 96.132 48.9125C96.132 48.1595 95.0967 47.5948 93.779 47.5948C92.4614 47.5948 91.4261 48.1595 91.4261 48.9125C91.4261 49.6654 92.4614 50.2301 93.779 50.2301Z" fill="black"/>
<defs>
<linearGradient id="paint0_linear_2_258" x1="40.9186" y1="93.9184" x2="152.75" y2="93.9184" gradientUnits="userSpaceOnUse">
<stop stop-color="#4C9ED9"/>
<stop offset="0.4988" stop-color="#3F8ABE"/>
<stop offset="0.5217" stop-color="#266288"/>
<stop offset="1" stop-color="#215B7F"/>
</linearGradient>
<linearGradient id="paint1_linear_2_258" x1="96.8903" y1="50.0912" x2="96.8903" y2="135.059" gradientUnits="userSpaceOnUse">
<stop stop-color="#9ADAEE"/>
<stop offset="1" stop-color="#246085"/>
</linearGradient>
<linearGradient id="paint2_linear_2_258" x1="40.9186" y1="81.6831" x2="152.75" y2="81.6831" gradientUnits="userSpaceOnUse">
<stop stop-color="#4C9ED9"/>
<stop offset="0.4988" stop-color="#3F8ABE"/>
<stop offset="0.5217" stop-color="#266288"/>
<stop offset="1" stop-color="#215B7F"/>
</linearGradient>
<linearGradient id="paint3_linear_2_258" x1="96.8903" y1="37.8559" x2="96.8903" y2="122.824" gradientUnits="userSpaceOnUse">
<stop stop-color="#9ADAEE"/>
<stop offset="1" stop-color="#246085"/>
</linearGradient>
<linearGradient id="paint4_linear_2_258" x1="40.9186" y1="69.4478" x2="152.75" y2="69.4478" gradientUnits="userSpaceOnUse">
<stop stop-color="#4C9ED9"/>
<stop offset="0.4988" stop-color="#3F8ABE"/>
<stop offset="0.5217" stop-color="#266288"/>
<stop offset="1" stop-color="#215B7F"/>
</linearGradient>
<linearGradient id="paint5_linear_2_258" x1="96.8903" y1="25.6206" x2="96.8903" y2="110.589" gradientUnits="userSpaceOnUse">
<stop stop-color="#9ADAEE"/>
<stop offset="1" stop-color="#246085"/>
</linearGradient>
<linearGradient id="paint6_linear_2_258" x1="40.9186" y1="57.2125" x2="152.75" y2="57.2125" gradientUnits="userSpaceOnUse">
<stop stop-color="#4C9ED9"/>
<stop offset="0.4988" stop-color="#3F8ABE"/>
<stop offset="0.5217" stop-color="#266288"/>
<stop offset="1" stop-color="#215B7F"/>
</linearGradient>
<linearGradient id="paint7_linear_2_258" x1="96.8903" y1="13.3853" x2="96.8903" y2="98.3535" gradientUnits="userSpaceOnUse">
<stop stop-color="#9ADAEE"/>
<stop offset="1" stop-color="#246085"/>
</linearGradient>
</defs>
</svg>