<svg width="125" height="108" viewBox="0 0 125 108" fill="none" xmlns="http://www.w3.org/2000/svg">
<path d="M93.0631 72.186L1 18.7636V54.4084L92.9573 107.991L93.0631 72.186Z" fill="#3579A9"/>
<path d="M1 18.7468V54.4215L31.9572 36.5553L32.0476 1L1 18.7468Z" fill="#245F84"/>
<path d="M72.9482 72.0098V74.434C72.9482 74.7033 73.1282 74.9727 73.4881 75.242C73.8481 75.5114 74.298 75.691 74.7481 75.9604L84.1974 81.4372C84.6474 81.7067 85.0974 81.8862 85.5473 81.8862C85.9972 81.8862 86.4472 81.7067 86.8973 81.4372L96.2566 75.9604C96.8865 75.6011 97.3365 75.3318 97.6065 75.1523C97.8765 74.9727 98.0565 74.7931 98.1464 74.5238V72.1894C98.1464 72.369 97.9664 72.4587 97.6065 72.6383C97.3365 72.8178 93.6467 74.8829 86.7173 78.9233C85.9073 79.3721 85.0073 79.3721 84.1974 78.9233C77.2679 74.8829 73.5782 72.7281 73.3083 72.5485C73.0382 72.5485 72.9482 72.369 72.9482 72.0098Z" fill="url(#paint0_linear_13782_109718)"/>
<path d="M86.6275 65.3657L97.6066 71.5608C98.0566 71.8302 98.2365 72.369 97.9666 72.8178C97.8766 72.9974 97.7866 73.0872 97.6066 73.177L86.6275 79.3721C85.8175 79.8211 84.9175 79.8211 84.1075 79.3721L73.3983 73.177C72.9483 72.9076 72.8583 72.369 73.0383 71.92C73.1283 71.7404 73.2183 71.6506 73.3983 71.5608L84.1075 65.3657C84.9175 64.9167 85.9074 64.9167 86.6275 65.3657Z" fill="url(#paint1_linear_13782_109718)"/>
<path d="M48.0845 57.601V60.0251C48.0845 60.2944 48.2645 60.5638 48.6244 60.8331C48.9844 61.1025 49.4343 61.2821 49.8843 61.5515L59.3337 67.0284C59.7837 67.2978 60.2337 67.4774 60.6836 67.4774C61.1335 67.4774 61.5835 67.2978 62.0336 67.0284L71.3929 61.5515C72.0228 61.1923 72.4728 60.923 72.7428 60.7434C73.0128 60.5638 73.1928 60.3843 73.2827 60.1149V57.7805C73.2827 57.9601 73.1027 58.0498 72.7428 58.2294C72.4728 58.409 68.783 60.474 61.8536 64.5144C61.0436 64.9633 60.1436 64.9633 59.3337 64.5144C52.4042 60.474 48.7145 58.3192 48.4445 58.1397C48.1745 58.1397 48.0845 57.9601 48.0845 57.601Z" fill="url(#paint2_linear_13782_109718)"/>
<path d="M61.7637 50.9568L72.7429 57.152C73.1929 57.4213 73.3728 57.9601 73.1029 58.409C73.0129 58.5886 72.9229 58.6783 72.7429 58.7681L61.7637 64.9633C60.9538 65.4123 60.0538 65.4123 59.2438 64.9633L48.5346 58.7681C48.0846 58.4987 47.9946 57.9601 48.1745 57.5111C48.2646 57.3316 48.3546 57.2417 48.5346 57.152L59.2438 50.9568C60.0538 50.5079 61.0437 50.5079 61.7637 50.9568Z" fill="url(#paint3_linear_13782_109718)"/>
<path d="M24.2147 43.5535V45.9777C24.2147 46.247 24.3946 46.5164 24.7546 46.7857C25.1146 47.0551 25.5645 47.2347 26.0145 47.5041L35.4639 52.9809C35.9138 53.2504 36.3639 53.4299 36.8138 53.4299C37.2637 53.4299 37.7137 53.2504 38.1637 52.9809L47.5231 47.5041C48.153 47.1448 48.603 46.8755 48.8729 46.696C49.143 46.5164 49.323 46.3368 49.4129 46.0675V43.7331C49.4129 43.9127 49.2329 44.0024 48.8729 44.182C48.603 44.3615 44.9132 46.4266 37.9838 50.467C37.1738 50.9158 36.2738 50.9158 35.4639 50.467C28.5344 46.4266 24.8447 44.2718 24.5747 44.0922C24.3047 44.0922 24.2147 43.9127 24.2147 43.5535Z" fill="url(#paint4_linear_13782_109718)"/>
<path d="M37.8939 36.9094L48.8731 43.1045C49.3231 43.3739 49.503 43.9127 49.2331 44.3615C49.1431 44.5411 49.0531 44.6309 48.8731 44.7207L37.8939 50.9158C37.0839 51.3648 36.184 51.3648 35.374 50.9158L24.6648 44.7207C24.2148 44.4513 24.1247 43.9127 24.3047 43.4637C24.3948 43.2841 24.4848 43.1943 24.6648 43.1045L35.374 36.9094C36.184 36.4604 37.1739 36.4604 37.8939 36.9094Z" fill="url(#paint5_linear_13782_109718)"/>
<path d="M32.0352 1.50636L123.108 54.5695L92.9606 71.8084L1.88739 18.7452L32.0352 1.50636Z" fill="url(#paint6_linear_13782_109718)" stroke="#9DCCE0" stroke-width="0.905501"/>
<path d="M123.498 55.4415L123.41 89.8447L93.4524 107.134V72.6154L123.498 55.4415Z" fill="#245F84" stroke="#7BA5B7"/>
<defs>
<linearGradient id="paint0_linear_13782_109718" x1="73.796" y1="76.9037" x2="97.3714" y2="76.9037" gradientUnits="userSpaceOnUse">
<stop stop-color="#4C9ED9"/>
<stop offset="0.4988" stop-color="#3F8ABE"/>
<stop offset="0.5652" stop-color="#266288"/>
<stop offset="1" stop-color="#215B7F"/>
</linearGradient>
<linearGradient id="paint1_linear_13782_109718" x1="85.5579" y1="72.2923" x2="85.5579" y2="79.6204" gradientUnits="userSpaceOnUse">
<stop stop-color="#00395F"/>
<stop offset="1" stop-color="#005377"/>
</linearGradient>
<linearGradient id="paint2_linear_13782_109718" x1="48.9323" y1="62.4949" x2="72.5077" y2="62.4949" gradientUnits="userSpaceOnUse">
<stop stop-color="#4C9ED9"/>
<stop offset="0.4988" stop-color="#3F8ABE"/>
<stop offset="0.5652" stop-color="#266288"/>
<stop offset="1" stop-color="#215B7F"/>
</linearGradient>
<linearGradient id="paint3_linear_13782_109718" x1="60.6942" y1="57.8835" x2="60.6942" y2="65.2116" gradientUnits="userSpaceOnUse">
<stop stop-color="#00395F"/>
<stop offset="1" stop-color="#005377"/>
</linearGradient>
<linearGradient id="paint4_linear_13782_109718" x1="25.0625" y1="48.4474" x2="48.6379" y2="48.4474" gradientUnits="userSpaceOnUse">
<stop stop-color="#4C9ED9"/>
<stop offset="0.4988" stop-color="#3F8ABE"/>
<stop offset="0.5652" stop-color="#266288"/>
<stop offset="1" stop-color="#215B7F"/>
</linearGradient>
<linearGradient id="paint5_linear_13782_109718" x1="36.8243" y1="43.836" x2="36.8243" y2="51.1641" gradientUnits="userSpaceOnUse">
<stop stop-color="#00395F"/>
<stop offset="1" stop-color="#005377"/>
</linearGradient>
<linearGradient id="paint6_linear_13782_109718" x1="62.5312" y1="14.2393" x2="62.5312" y2="100.899" gradientUnits="userSpaceOnUse">
<stop stop-color="#9ADAEE"/>
<stop offset="1" stop-color="#246085"/>
</linearGradient>
</defs>
</svg>
