<svg width="114" height="150" viewBox="0 0 114 150" fill="none" xmlns="http://www.w3.org/2000/svg">
<g clip-path="url(#clip0_13782_110008)">
<mask id="mask0_13782_110008" style="mask-type:luminance" maskUnits="userSpaceOnUse" x="0" y="0" width="114" height="150">
<path d="M114 0H0V150H114V0Z" fill="white"/>
</mask>
<g mask="url(#mask0_13782_110008)">
<path d="M0.285163 32.6732L0.169861 116.08C0.259498 117.515 1.15587 118.769 2.76934 119.845C4.47245 120.921 6.2652 121.996 8.32686 123.162L50.8149 147.902C52.9662 149.246 55.028 149.963 57 149.963C58.972 149.963 61.0337 149.336 63.0953 147.902L105.494 123.072C108.273 121.369 110.245 120.204 111.499 119.576C112.754 118.949 113.561 118.052 113.92 116.887V33.3451C113.74 33.9725 113.023 34.6896 111.679 35.4964C110.334 36.2135 94.0202 45.8047 62.5575 64.0907C58.972 66.1523 54.5798 66.1523 51.0839 64.0907C19.6212 45.6254 3.30717 36.0342 2.05225 35.3171C0.797324 34.5104 0.482202 34.2302 0.285163 32.6732Z" fill="url(#paint0_linear_13782_110008)"/>
<path d="M61.8404 2.06167C58.4342 0.179284 54.3108 0.179283 50.9942 2.1513L2.50052 30.3871C1.9627 30.7456 1.51451 31.1938 1.15596 31.7316C0.169954 33.5244 0.707778 35.7653 2.50052 36.7513L50.9942 64.9871C54.3108 66.9591 58.4342 66.9591 61.8404 65.0767L111.499 36.8409C112.037 36.4824 112.575 36.0342 112.844 35.4964C113.83 33.7036 113.203 31.4627 111.499 30.4767L61.8404 2.06167Z" fill="url(#paint1_linear_13782_110008)" stroke="#9DCCE0" stroke-width="0.896373"/>
<path d="M79.3256 59.7648C77.981 58.8684 76.6365 60.213 75.2919 63.7985V102.432L79.3256 99.7428V59.7648ZM73.2303 62.8125C71.8857 61.9161 70.5411 63.2606 69.1966 66.8461V105.48L73.2303 102.791V62.8125Z" fill="url(#paint2_linear_13782_110008)"/>
</g>
<path d="M65.3023 63.0871L5.10909 28.3586C-0.527134 30.5622 0.174095 33.7615 0.174095 34.4189L0.174114 79.1114L54.559 110.506C58.8236 112.297 64.1715 109.376 65.3023 107.114V63.0871Z" fill="#013A60" fill-opacity="0.7"/>
<path d="M3.28153 73.0848V42.6937L51.0121 70.0481V99.7285L3.28153 73.0848Z" fill="#134262"/>
<path d="M4.88554 71.6188V43.6739L50.8497 70.0628V96.8126L4.88554 71.6188Z" fill="#0D2D44"/>
</g>
<defs>
<linearGradient id="paint0_linear_13782_110008" x1="3.86821" y1="90.9424" x2="110.376" y2="90.9424" gradientUnits="userSpaceOnUse">
<stop stop-color="#4C9ED9"/>
<stop offset="0.4988" stop-color="#3F8ABE"/>
<stop offset="0.5408" stop-color="#266288"/>
<stop offset="1" stop-color="#215B7F"/>
</linearGradient>
<linearGradient id="paint1_linear_13782_110008" x1="57.0242" y1="12.513" x2="57.0242" y2="93.6154" gradientUnits="userSpaceOnUse">
<stop stop-color="#9ADAEE"/>
<stop offset="1" stop-color="#246085"/>
</linearGradient>
<linearGradient id="paint2_linear_13782_110008" x1="74.2584" y1="82.4717" x2="74.2584" y2="105.467" gradientUnits="userSpaceOnUse">
<stop stop-color="#00395F"/>
<stop offset="1" stop-color="#005377"/>
</linearGradient>
<clipPath id="clip0_13782_110008">
<rect width="114" height="150" fill="white"/>
</clipPath>
</defs>
</svg>
