<svg width="117" height="78" viewBox="0 0 117 78" fill="none" xmlns="http://www.w3.org/2000/svg">
<path fill-rule="evenodd" clip-rule="evenodd" d="M1 32.7545V43.9296C1.09072 45.3832 1.99695 46.5644 3.62816 47.6546C4.3256 48.0962 5.03792 48.5378 5.77715 48.9795C7.76814 48.0929 10.1413 48.3975 11.7838 49.9458C12.7707 50.8762 13.3268 52.0981 13.4485 53.3693L22.4548 58.6078C24.469 57.6566 26.9029 57.9424 28.5775 59.521C29.6165 60.5005 30.1781 61.8033 30.2579 63.1465L39.0691 68.2715C41.1165 67.2158 43.6466 67.4704 45.3711 69.0961C46.4612 70.1236 47.0256 71.5069 47.0599 72.9194L52.2018 75.9102C54.3768 77.2732 56.4612 78 58.4549 78C60.5392 78 62.5329 77.3639 64.6172 75.9102L69.594 73.0093C69.5554 72.5125 69.5858 72.0031 69.693 71.4925C70.317 68.5185 73.3072 66.6315 76.3718 67.2778C77.0353 67.4177 77.6478 67.6649 78.194 67.9965L86.6903 63.0441C86.6557 62.5582 86.6871 62.0605 86.7918 61.5618C87.4158 58.5877 90.406 56.7008 93.4706 57.3471C94.1218 57.4844 94.7239 57.725 95.2625 58.0474L103.787 53.0787C103.756 52.6038 103.788 52.1179 103.891 51.631C104.515 48.657 107.505 46.77 110.569 47.4163C111.186 47.5464 111.759 47.7693 112.276 48.0666C112.763 47.7933 113.188 47.5651 113.553 47.382C114.823 46.7461 115.638 45.8375 116 44.6564V34.0264C115.819 34.6624 115.094 35.3893 113.734 36.2069C112.837 36.6869 105.261 41.0891 90.9805 49.3874L90.9723 49.3922C83.6284 53.6595 74.5122 58.9567 63.62 65.2804C60.2673 67.1883 56.1892 67.1883 52.9269 65.2804C20.8465 46.4735 4.17189 36.7521 2.90318 36.0252C1.63446 35.2075 1 34.1173 1 32.7545Z" fill="url(#paint0_linear_13782_109987)"/>
<path d="M62.851 2.31824C59.6857 0.501152 55.888 0.592007 52.8136 2.4091L3.08066 31.3008C2.53812 31.5734 2.17643 32.0277 1.81473 32.5728C0.9104 34.2081 1.45304 36.2977 3.08066 37.2064L52.8136 66.098C55.888 67.9152 59.7761 67.9152 62.851 66.1889L113.849 37.2064C114.392 36.9338 114.844 36.4795 115.115 35.9344C116.02 34.299 115.477 32.2094 113.849 31.3008L62.851 2.31824Z" fill="url(#paint1_linear_13782_109987)" stroke="#9DCCE0" stroke-width="0.908999"/>
<path d="M60.0488 12.3306C58.1092 11.1529 55.7822 11.2118 53.8983 12.3895L23.4244 31.1142C23.092 31.2908 22.8704 31.5852 22.6487 31.9385C22.0946 32.9984 22.4271 34.3527 23.4244 34.9416L53.8983 53.6662C55.7822 54.8439 58.1646 54.8439 60.0488 53.7252L91.2979 34.9416C91.6307 34.7649 91.9074 34.4705 92.0739 34.1172C92.6279 33.0573 92.2957 31.703 91.2979 31.1142L60.0488 12.3306Z" fill="url(#paint2_linear_13782_109987)" stroke="#7BA5B7" stroke-width="0.908999"/>
<path d="M74.914 34.0267C74.9775 35.0513 73.813 35.3612 71.4203 34.9565L50.2478 22.6357L53.0047 21.2771L74.914 34.0267ZM71.2557 36.3751C71.3193 37.3997 70.1547 37.7096 67.7621 37.305L46.5897 24.9842L49.3465 23.6255L71.2557 36.3751Z" fill="url(#paint3_linear_13782_109987)"/>
<path d="M68.2387 42.2182C68.3174 43.4882 66.8741 43.8723 63.9087 43.3707L37.6679 28.1005L41.0847 26.4166L68.2387 42.2182Z" fill="url(#paint4_linear_13782_109987)"/>
<path d="M70.4558 28.2109L63.0416 24.1732L70.2822 23.0117L70.4558 28.2109Z" fill="#013A60"/>
<defs>
<linearGradient id="paint0_linear_13782_109987" x1="4.73906" y1="55.3346" x2="112.418" y2="55.3346" gradientUnits="userSpaceOnUse">
<stop stop-color="#4C9ED9"/>
<stop offset="0.4988" stop-color="#3F8ABE"/>
<stop offset="0.5217" stop-color="#266288"/>
<stop offset="1" stop-color="#215B7F"/>
</linearGradient>
<linearGradient id="paint1_linear_13782_109987" x1="58.5049" y1="13.0269" x2="58.5049" y2="95.0494" gradientUnits="userSpaceOnUse">
<stop stop-color="#9ADAEE"/>
<stop offset="1" stop-color="#246085"/>
</linearGradient>
<linearGradient id="paint2_linear_13782_109987" x1="57.3857" y1="19.2708" x2="57.3857" y2="72.4296" gradientUnits="userSpaceOnUse">
<stop stop-color="#E9F5F9"/>
<stop offset="1" stop-color="#47A2DA"/>
</linearGradient>
<linearGradient id="paint3_linear_13782_109987" x1="60.8233" y1="29.5419" x2="48.2048" y2="22.2363" gradientUnits="userSpaceOnUse">
<stop stop-color="#00395F"/>
<stop offset="1" stop-color="#005377"/>
</linearGradient>
<linearGradient id="paint4_linear_13782_109987" x1="50.7749" y1="36.6599" x2="35.1358" y2="27.6054" gradientUnits="userSpaceOnUse">
<stop stop-color="#00395F"/>
<stop offset="1" stop-color="#005377"/>
</linearGradient>
</defs>
</svg>
