<svg width="117" height="142" viewBox="0 0 117 142" fill="none" xmlns="http://www.w3.org/2000/svg">
<path d="M85.4639 140.82L81.5404 106.5L90.4342 100.203L108.575 123.592L85.4639 140.82Z" fill="#245F84"/>
<path d="M56.1062 130.208L72.9282 105.337L81.672 106.718L85.4762 140.82L56.1062 130.208Z" fill="#3579A9"/>
<ellipse cx="13.4693" cy="11.4494" rx="13.4693" ry="11.4494" transform="matrix(0.812582 -0.582847 0.587523 0.809207 62.6398 94.182)" fill="#01395F"/>
<path d="M106.662 36.0627C111.181 42.0053 110.847 50.848 106.429 60.4596C102.019 70.0505 93.5896 80.2818 82.1684 88.8538C70.7471 97.4258 58.5366 102.686 48.0449 104.278C37.5305 105.875 28.8769 103.777 24.3576 97.8344C19.8383 91.8918 20.172 83.0491 24.5908 73.4375C29 63.8466 37.4298 53.6153 48.851 45.0433C60.2723 36.4713 72.4828 31.2114 82.9745 29.6187C93.4889 28.0225 102.142 30.12 106.662 36.0627Z" fill="url(#paint0_linear_13782_109899)" stroke="#9DCCE0"/>
<path d="M25.8824 94.7157L41.6878 41.7715L45.7497 40.4656L28.7178 97.1003C27.3219 98.2276 26.2459 95.9803 25.8824 94.7157Z" fill="#5C9AB7"/>
<path d="M101.856 40.8957L44.0005 41.9616L45.4741 38.6204L101.856 37.1875C103.463 38.861 102.526 40.3569 101.856 40.8957Z" fill="#5C9AB7"/>
<path d="M79.5843 90.0819L42.8953 42.0073L46.6713 39.49L83.3148 87.3027L79.5843 90.0819Z" fill="#5C9AB7"/>
<path d="M47.8642 38.5804C47.0628 42.316 43.293 43.433 41.5082 43.5245L35.7657 37.2393L42.9817 31.8323L47.8642 38.5804Z" fill="url(#paint1_linear_13782_109899)"/>
<path d="M35.7048 37.1727L35.7657 37.2393M35.7657 37.2393L41.5082 43.5245C43.293 43.433 47.0628 42.316 47.8642 38.5804L42.9817 31.8323L35.7657 37.2393Z" stroke="#9DCCE0"/>
<path d="M40.038 35.3872C38.9621 36.1833 37.8712 36.7091 36.992 36.9283C36.5512 37.0382 36.1887 37.0648 35.919 37.0278C35.6517 36.9911 35.5169 36.8998 35.4491 36.8092C35.3812 36.7186 35.3319 36.5641 35.3733 36.299C35.415 36.0316 35.5446 35.6941 35.777 35.3059C36.2406 34.5317 37.0603 33.6439 38.1363 32.8478C39.2123 32.0517 40.3031 31.526 41.1823 31.3068C41.6231 31.1969 41.9856 31.1703 42.2553 31.2073C42.5226 31.2439 42.6574 31.3352 42.7253 31.4258C42.7931 31.5164 42.8425 31.6709 42.8011 31.936C42.7593 32.2034 42.6297 32.5409 42.3973 32.9291C41.9338 33.7033 41.114 34.5911 40.038 35.3872Z" fill="#9DCCE0" stroke="#9DCCE0"/>
<path d="M109.876 45.2883C110.348 71.9649 92.1397 120.365 35.071 104.179C33.8875 103.915 32.7602 103.576 31.6972 103.161C32.8366 103.525 33.9612 103.865 35.071 104.179C58.0893 109.314 102.408 86.1103 109.876 45.2883Z" fill="url(#paint2_linear_13782_109899)" stroke="#9DCCE0"/>
<path d="M24.3075 18.3514C23.9158 17.9621 23.2826 17.964 22.8933 18.3557C22.504 18.7474 22.5059 19.3806 22.8976 19.7699L24.3075 18.3514ZM35.2573 30.6449L32.2349 19.5004L24.0947 27.6902L35.2573 30.6449ZM22.8976 19.7699L28.1691 25.0095L29.579 23.591L24.3075 18.3514L22.8976 19.7699Z" fill="#9DCCE0"/>
<path d="M7.16985 13.9507C6.77814 13.5614 6.14497 13.5633 5.75564 13.955C5.3663 14.3467 5.36823 14.9799 5.75994 15.3692L7.16985 13.9507ZM19.0911 27.2097L16.0686 16.0653L7.92852 24.255L19.0911 27.2097ZM5.75994 15.3692L12.0029 21.5743L13.4128 20.1558L7.16985 13.9507L5.75994 15.3692Z" fill="#9DCCE0"/>
<path d="M20.588 1.43304C20.1962 1.0437 19.5631 1.04562 19.1737 1.43733C18.7844 1.82904 18.7863 2.4622 19.178 2.85154L20.588 1.43304ZM31.8765 14.0632L28.8541 2.91876L20.714 11.1085L31.8765 14.0632ZM19.178 2.85154L24.7883 8.42783L26.1982 7.00933L20.588 1.43304L19.178 2.85154Z" fill="#9DCCE0"/>
<defs>
<linearGradient id="paint0_linear_13782_109899" x1="53.4547" y1="50.0587" x2="79.4431" y2="86.2432" gradientUnits="userSpaceOnUse">
<stop stop-color="#9ADAEE"/>
<stop offset="1" stop-color="#246085"/>
</linearGradient>
<linearGradient id="paint1_linear_13782_109899" x1="41.7985" y1="33.9607" x2="41.7985" y2="48.3609" gradientUnits="userSpaceOnUse">
<stop stop-color="#9ADAEE"/>
<stop offset="1" stop-color="#246085"/>
</linearGradient>
<linearGradient id="paint2_linear_13782_109899" x1="70.8809" y1="56.5981" x2="70.8809" y2="133.116" gradientUnits="userSpaceOnUse">
<stop stop-color="#9ADAEE"/>
<stop offset="1" stop-color="#246085"/>
</linearGradient>
</defs>
</svg>
