<svg width="186" height="173" viewBox="0 0 206 193" fill="none" xmlns="http://www.w3.org/2000/svg">
<!-- <path d="M111.2 76.7L196.7 124.9C200.1 126.8 201.3 131.1 199.4 134.5C198.8 135.6 197.8 136.6 196.7 137.2L111.2 185.4C105.2 188.8 97.8999 188.7 91.8999 185.3L8.49992 137.1C5.09992 135.1 3.99994 130.8 5.89994 127.4C6.49994 126.3 7.39992 125.4 8.49992 124.8L91.8999 76.6C97.7999 73.4 105.2 73.3 111.2 76.7Z" fill="#FCE83A" fill-opacity="0.6" class="status-indicator" /> -->
<path d="M39.5999 35.7V129.5C39.6999 131.1 40.6999 132.5 42.4999 133.7C44.3999 134.9 46.3999 136.1 48.6999 137.4L96.0999 165C98.4999 166.5 100.8 167.3 103 167.3C105.2 167.3 107.5 166.6 109.8 165L157.1 137.3C160.2 135.4 162.4 134.1 163.8 133.4C165.2 132.7 166.1 131.7 166.5 130.4V37.2C166.3 37.9 165.5 38.7 164 39.6C162.5 40.4 144.3 51.1 109.2 71.5C105.2 73.8 100.3 73.8 96.3999 71.5C61.2999 50.9 43.0999 40.2 41.6999 39.4C40.2999 38.5 39.5999 37.3 39.5999 35.7Z" fill="url(#paint0_linear_2_206)"/>
<path d="M108.4 2.3C104.6 0.200001 99.9999 0.199999 96.2999 2.4L42.2 33.9C41.6 34.3 41.1 34.8 40.7 35.4C39.6 37.4 40.2 39.9 42.2 41L96.2999 72.5C99.9999 74.7 104.6 74.7 108.4 72.6L163.8 41.1C164.4 40.7 165 40.2 165.3 39.6C166.4 37.6 165.7 35.1 163.8 34L108.4 2.3Z" fill="url(#paint1_linear_2_206)" stroke="#9DCCE0"/>
<path d="M49.2998 63.646C50.7998 62.646 52.2998 64.146 53.7998 68.146V111.246L49.2998 108.246V63.646ZM56.0998 67.146C57.5998 66.146 59.0998 67.646 60.5998 71.646V114.746L56.0998 111.746V67.146Z" fill="url(#paint2_linear_2_206)"/>
<path d="M62.8999 79.546C64.3999 78.746 65.8999 79.946 67.3999 82.946V115.846L62.8999 113.546V79.546ZM84.3999 88.546C85.8999 87.746 87.3999 88.946 88.8999 91.946V124.946L84.3999 122.646V88.546Z" fill="url(#paint3_linear_2_206)"/>
<path d="M69.6998 73.946C71.1998 72.946 72.6998 74.446 74.1998 78.446V121.546L69.6998 118.546V73.946ZM76.4998 77.346C77.9998 76.346 79.4998 77.846 80.9998 81.846V124.946L76.4998 121.946V77.346Z" fill="url(#paint4_linear_2_206)"/>
<path d="M157.7 64.7C156.2 63.7 154.7 65.2 153.2 69.2V112.3L157.7 109.3V64.7ZM150.9 68.2C149.4 67.2 147.9 68.7 146.4 72.7V115.8L150.9 112.8V68.2Z" fill="url(#paint5_linear_2_206)"/>
<path d="M144.1 80.6C142.6 79.8 141.1 81 139.6 84V116.9L144.1 114.6V80.6ZM122.6 89.6C121.1 88.8 119.6 90 118.1 93V126L122.6 123.7V89.6Z" fill="url(#paint6_linear_2_206)"/>
<path d="M137.3 75C135.8 74 134.3 75.5 132.8 79.5V122.6L137.3 119.6V75ZM130.5 78.4C129 77.4 127.5 78.9 126 82.9V126L130.5 123V78.4Z" fill="url(#paint7_linear_2_206)"/>
<defs>
<linearGradient id="paint0_linear_2_206" x1="43.7258" y1="101.456" x2="162.547" y2="101.456" gradientUnits="userSpaceOnUse">
<stop stop-color="#4C9ED9"/>
<stop offset="0.4988" stop-color="#3F8ABE"/>
<stop offset="0.5408" stop-color="#266288"/>
<stop offset="1" stop-color="#215B7F"/>
</linearGradient>
<linearGradient id="paint1_linear_2_206" x1="103.027" y1="13.9596" x2="103.027" y2="104.438" gradientUnits="userSpaceOnUse">
<stop stop-color="#9ADAEE"/>
<stop offset="1" stop-color="#246085"/>
</linearGradient>
<linearGradient id="paint2_linear_2_206" x1="54.942" y1="89.055" x2="54.942" y2="114.709" gradientUnits="userSpaceOnUse">
<stop stop-color="#00395F"/>
<stop offset="1" stop-color="#005377"/>
</linearGradient>
<linearGradient id="paint3_linear_2_206" x1="75.9288" y1="102.13" x2="75.9288" y2="124.946" gradientUnits="userSpaceOnUse">
<stop stop-color="#00395F"/>
<stop offset="1" stop-color="#005377"/>
</linearGradient>
<linearGradient id="paint4_linear_2_206" x1="75.3527" y1="99.2777" x2="75.3527" y2="124.932" gradientUnits="userSpaceOnUse">
<stop stop-color="#00395F"/>
<stop offset="1" stop-color="#005377"/>
</linearGradient>
<linearGradient id="paint5_linear_2_206" x1="152.058" y1="90.109" x2="152.058" y2="115.763" gradientUnits="userSpaceOnUse">
<stop stop-color="#00395F"/>
<stop offset="1" stop-color="#005377"/>
</linearGradient>
<linearGradient id="paint6_linear_2_206" x1="131.071" y1="103.184" x2="131.071" y2="126" gradientUnits="userSpaceOnUse">
<stop stop-color="#00395F"/>
<stop offset="1" stop-color="#005377"/>
</linearGradient>
<linearGradient id="paint7_linear_2_206" x1="131.647" y1="100.332" x2="131.647" y2="125.986" gradientUnits="userSpaceOnUse">
<stop stop-color="#00395F"/>
<stop offset="1" stop-color="#005377"/>
</linearGradient>
</defs>
</svg>