<svg width="117" height="142" viewBox="0 0 117 142" fill="none" xmlns="http://www.w3.org/2000/svg">
<path d="M31.5361 140.82L35.4597 106.5L26.5658 100.203L8.42454 123.592L31.5361 140.82Z" fill="#245F84"/>
<path d="M60.9095 130.208L44.0874 105.337L35.3437 106.718L31.5394 140.82L60.9095 130.208Z" fill="#3579A9"/>
<ellipse cx="13.4693" cy="11.4494" rx="13.4693" ry="11.4494" transform="matrix(-0.812582 -0.582847 -0.587523 0.809207 54.3602 94.182)" fill="#01395F"/>
<path d="M10.3382 36.0627C5.81895 42.0053 6.15262 50.848 10.5714 60.4596C14.9806 70.0505 23.4104 80.2818 34.8316 88.8538C46.2529 97.4258 58.4634 102.686 68.9551 104.278C79.4695 105.875 88.1231 103.777 92.6424 97.8344C97.1617 91.8918 96.828 83.0491 92.4092 73.4375C88 63.8466 79.5702 53.6153 68.149 45.0433C56.7277 36.4713 44.5172 31.2114 34.0255 29.6187C23.5111 28.0225 14.8575 30.12 10.3382 36.0627Z" fill="url(#paint0_linear_13782_109796)" stroke="#9DCCE0"/>
<path d="M91.1176 94.7157L75.3122 41.7715L71.2503 40.4656L88.2822 97.1003C89.6781 98.2276 90.7541 95.9803 91.1176 94.7157Z" fill="#5C9AB7"/>
<path d="M15.1441 40.8957L72.9995 41.9616L71.5259 38.6204L15.1441 37.1875C13.5369 38.861 14.4744 40.3569 15.1441 40.8957Z" fill="#5C9AB7"/>
<path d="M37.4157 90.0819L74.1047 42.0073L70.3287 39.49L33.6852 87.3027L37.4157 90.0819Z" fill="#5C9AB7"/>
<path d="M69.1358 38.5804C69.9372 42.316 73.707 43.433 75.4918 43.5245L81.2343 37.2393L74.0183 31.8323L69.1358 38.5804Z" fill="url(#paint1_linear_13782_109796)"/>
<path d="M81.2952 37.1727L81.2343 37.2393M81.2343 37.2393L75.4918 43.5245C73.707 43.433 69.9372 42.316 69.1358 38.5804L74.0183 31.8323L81.2343 37.2393Z" stroke="#9DCCE0"/>
<path d="M76.962 35.3872C78.0379 36.1833 79.1288 36.7091 80.008 36.9283C80.4488 37.0382 80.8113 37.0648 81.081 37.0278C81.3483 36.9911 81.4831 36.8998 81.5509 36.8092C81.6188 36.7186 81.6681 36.5641 81.6267 36.299C81.585 36.0316 81.4554 35.6941 81.223 35.3059C80.7594 34.5317 79.9397 33.6439 78.8637 32.8478C77.7877 32.0517 76.6969 31.526 75.8177 31.3068C75.3769 31.1969 75.0144 31.1703 74.7447 31.2073C74.4774 31.2439 74.3426 31.3352 74.2747 31.4258C74.2069 31.5164 74.1575 31.6709 74.1989 31.936C74.2407 32.2034 74.3703 32.5409 74.6027 32.9291C75.0662 33.7033 75.886 34.5911 76.962 35.3872Z" fill="#9DCCE0" stroke="#9DCCE0"/>
<path d="M7.12369 45.2883C6.65217 71.9649 24.8603 120.365 81.929 104.179C83.1125 103.915 84.2398 103.576 85.3028 103.161C84.1634 103.525 83.0388 103.865 81.929 104.179C58.9107 109.314 14.5923 86.1103 7.12369 45.2883Z" fill="url(#paint2_linear_13782_109796)" stroke="#9DCCE0"/>
<path d="M90.6472 36.8127C91.008 31.0896 87.6628 20.2516 71.3966 22.6851" stroke="#9DCCE0" stroke-width="4" stroke-linecap="round"/>
<path d="M98.8858 36.0386C99.4286 27.4261 94.3947 11.1165 69.9164 14.7785" stroke="#9DCCE0" stroke-width="4" stroke-linecap="round"/>
<path d="M109.349 34.4809C110.116 22.3068 103 -0.747157 68.3995 4.42919" stroke="#9DCCE0" stroke-width="4" stroke-linecap="round"/>
<defs>
<linearGradient id="paint0_linear_13782_109796" x1="63.5453" y1="50.0587" x2="37.5569" y2="86.2432" gradientUnits="userSpaceOnUse">
<stop stop-color="#9ADAEE"/>
<stop offset="1" stop-color="#246085"/>
</linearGradient>
<linearGradient id="paint1_linear_13782_109796" x1="75.2015" y1="33.9607" x2="75.2015" y2="48.3609" gradientUnits="userSpaceOnUse">
<stop stop-color="#9ADAEE"/>
<stop offset="1" stop-color="#246085"/>
</linearGradient>
<linearGradient id="paint2_linear_13782_109796" x1="46.1191" y1="56.5981" x2="46.1191" y2="133.116" gradientUnits="userSpaceOnUse">
<stop stop-color="#9ADAEE"/>
<stop offset="1" stop-color="#246085"/>
</linearGradient>
</defs>
</svg>
